<svg width="48" height="48" viewBox="0 0 48 48" fill="none" xmlns="http://www.w3.org/2000/svg">
<circle cx="24" cy="24" r="24" fill="#F5F5F5"/>
<circle cx="24" cy="24" r="16.8276" fill="#1E2A41"/>
<path d="M31.2032 17.6805C30.9003 17.6155 30.6023 17.8085 30.5374 18.1113L30.1299 20.013C28.8325 17.7996 26.451 16.4106 23.841 16.4106C19.8214 16.4106 16.5513 19.6807 16.5513 23.7003C16.5513 24.01 16.8023 24.2611 17.1121 24.2611C17.4217 24.2611 17.6728 24.01 17.6728 23.7003C17.6728 20.2992 20.4398 17.5321 23.841 17.5321C26.0583 17.5321 28.0809 18.7166 29.1759 20.6025L27.3064 20.2018C27.0035 20.1369 26.7055 20.3298 26.6407 20.6326C26.5758 20.9354 26.7687 21.2336 27.0715 21.2984L30.2806 21.9861C30.3351 21.9979 30.3904 22.0012 30.445 21.9966C30.536 21.989 30.6246 21.9591 30.7027 21.9086C30.8275 21.8278 30.9152 21.7007 30.9464 21.5554L31.6341 18.3463C31.6989 18.0435 31.506 17.7455 31.2032 17.6805Z" fill="white"/>
<path d="M31.4165 22.9652C31.107 22.9754 30.8643 23.2346 30.8746 23.5441C30.9289 25.1908 30.3389 26.7601 29.2129 27.963C28.087 29.1657 26.56 29.8582 24.9134 29.9126C24.8447 29.9148 24.7765 29.9159 24.7081 29.9159C22.5595 29.9158 20.5802 28.7999 19.4624 26.992L21.4114 27.5146C21.7105 27.5948 22.018 27.4173 22.0982 27.1182C22.1785 26.819 22.001 26.5116 21.7019 26.4313L18.5319 25.5814C18.3883 25.5429 18.2352 25.563 18.1064 25.6373C17.9776 25.7116 17.8836 25.8341 17.8451 25.9777L16.9952 29.1478C16.915 29.4469 17.0925 29.7544 17.3916 29.8346C17.4403 29.8477 17.4891 29.854 17.5372 29.854C17.7847 29.854 18.0113 29.6887 18.0784 29.4383L18.5561 27.6566C19.8851 29.7491 22.1982 31.0375 24.7078 31.0374C24.7884 31.0374 24.8695 31.0361 24.9504 31.0334C26.8965 30.9691 28.701 30.1508 30.0317 28.7293C31.3624 27.3078 32.0598 25.4532 31.9955 23.5071C31.9853 23.1977 31.726 22.9542 31.4165 22.9652Z" fill="white"/>
</svg>
