<svg width="22" height="20" viewBox="0 0 22 20" fill="none" xmlns="http://www.w3.org/2000/svg">
<path d="M0.999928 13.9999L0.177507 14.3655C-0.0179276 13.9258 0.16706 13.4101 0.597436 13.195L0.999928 13.9999ZM3.00006 18.4999L3.28467 19.3538C2.84498 19.5003 2.36588 19.289 2.17764 18.8655L3.00006 18.4999ZM6.00003 17.4999L5.71543 16.6461C5.89133 16.5875 6.08105 16.5846 6.25865 16.6379L6.00003 17.4999ZM14.0001 12.9999L14.9001 12.9998L14.9001 12.9999L14.0001 12.9999ZM11.9999 14.4999L11.9999 15.3999L11.955 15.3999L11.9104 15.3955L11.9999 14.4999ZM6.91038 14.8955C6.41579 14.846 6.05494 14.405 6.1044 13.9104C6.15385 13.4158 6.59489 13.055 7.08948 13.1044L6.91038 14.8955ZM16.1917 15.633L15.4442 15.1317L16.1917 15.633ZM20.7939 8.77027L21.5414 9.27153L20.7939 8.77027ZM6.44113 11.2793L6.84363 12.0843L6.44113 11.2793ZM1.82235 13.6344L3.82248 18.1344L2.17764 18.8655L0.177507 14.3655L1.82235 13.6344ZM2.71546 17.6461L5.71543 16.6461L6.28464 18.3538L3.28467 19.3538L2.71546 17.6461ZM6.25865 16.6379L10.4069 17.8824L9.88972 19.6065L5.74142 18.362L6.25865 16.6379ZM0.597436 13.195L6.03864 10.4744L6.84363 12.0843L1.40242 14.8049L0.597436 13.195ZM7.74568 10.1973L14.1272 11.109L13.8727 12.8909L7.49112 11.9792L7.74568 10.1973ZM11.9999 13.5999C12.2655 13.5999 12.5877 13.5904 12.833 13.4852C12.9383 13.4401 12.9917 13.392 13.0218 13.3492C13.0482 13.3118 13.1001 13.2182 13.1001 12.9999L14.9001 12.9999C14.9001 13.5317 14.7644 14.0006 14.4939 14.3851C14.2272 14.7641 13.8743 14.9973 13.5421 15.1397C12.9124 15.4095 12.2345 15.3999 11.9999 15.3999L11.9999 13.5999ZM7.08948 13.1044L12.0895 13.6044L11.9104 15.3955L6.91038 14.8955L7.08948 13.1044ZM15.0606 2.76885C16.2756 4.87334 15.5545 7.56434 13.4501 8.77936L12.5501 7.22052C13.7936 6.50255 14.2197 4.91241 13.5017 3.66885L15.0606 2.76885ZM13.4501 8.77936C11.3456 9.99439 8.65458 9.27334 7.43955 7.16885L8.99839 6.26885C9.71636 7.51241 11.3065 7.93849 12.5501 7.22052L13.4501 8.77936ZM7.43955 7.16885C6.22452 5.06436 6.94558 2.37337 9.05006 1.15834L9.95006 2.71719C8.7065 3.43516 8.28042 5.02529 8.99839 6.26885L7.43955 7.16885ZM9.05006 1.15834C11.1545 -0.0566857 13.8455 0.664361 15.0606 2.76885L13.5017 3.66885C12.7838 2.42529 11.1936 1.99922 9.95006 2.71719L9.05006 1.15834ZM13.4238 11.3085L18.3465 7.20629L19.4988 8.58909L14.5761 12.6913L13.4238 11.3085ZM11.2935 17.7693L15.1012 15.4596L16.0347 16.9986L12.2271 19.3083L11.2935 17.7693ZM15.4442 15.1317L20.0464 8.269L21.5414 9.27153L16.9392 16.1343L15.4442 15.1317ZM14.8999 11.9998L14.9001 12.9998L13.1001 13.0001L13.0999 12.0001L14.8999 11.9998ZM15.1012 15.4596C15.238 15.3766 15.3551 15.2647 15.4442 15.1317L16.9392 16.1343C16.7042 16.4848 16.3955 16.7797 16.0347 16.9986L15.1012 15.4596ZM20.0464 8.269C19.9659 8.3891 19.9666 8.54614 20.0482 8.66553L21.5342 7.64985C21.868 8.13811 21.8708 8.78035 21.5414 9.27153L20.0464 8.269ZM6.03864 10.4744C6.56624 10.2106 7.16174 10.1139 7.74568 10.1973L7.49112 11.9792C7.26963 11.9476 7.04375 11.9843 6.84363 12.0843L6.03864 10.4744ZM18.3465 7.20629C19.3319 6.38507 20.8104 6.59079 21.5342 7.64985L20.0482 8.66553C19.9234 8.48301 19.6686 8.44756 19.4988 8.58909L18.3465 7.20629ZM10.4069 17.8824C10.7052 17.9719 11.0273 17.9308 11.2935 17.7693L12.2271 19.3083C11.5253 19.734 10.6759 19.8423 9.88972 19.6065L10.4069 17.8824Z" fill="#9D2550"/>
</svg>
